<svg width="207" height="56" viewBox="0 0 207 56" fill="none" xmlns="http://www.w3.org/2000/svg">
<path d="M4.22356 55C2.91689 55 1.91355 54.44 1.21355 53.32C0.513555 52.2 0.443555 51.01 1.00355 49.75L20.6736 2.78C21.3736 1.14666 22.5169 0.329999 24.1036 0.329999C25.7836 0.329999 26.9269 1.14666 27.5336 2.78L47.2736 49.89C47.7869 51.1967 47.6936 52.3867 46.9936 53.46C46.3402 54.4867 45.3369 55 43.9836 55C43.2836 55 42.6069 54.8133 41.9536 54.44C41.3469 54.02 40.9036 53.46 40.6236 52.76L23.2636 9.64H25.2236L7.58356 52.76C7.25689 53.5067 6.76689 54.0667 6.11355 54.44C5.50689 54.8133 4.87689 55 4.22356 55ZM7.93356 42.96L10.7336 36.94H38.1736L40.9736 42.96H7.93356ZM58.0523 53.67L53.2923 49.47L77.0923 18.04L81.7823 22.24L58.0523 53.67ZM55.9523 55C53.759 55 52.6623 53.9033 52.6623 51.71C52.6623 49.5167 53.759 48.42 55.9523 48.42H79.8223C82.0156 48.42 83.1123 49.5167 83.1123 51.71C83.1123 53.9033 82.0156 55 79.8223 55H55.9523ZM55.2523 23.29C53.059 23.29 51.9623 22.1933 51.9623 20C51.9623 17.8067 53.059 16.71 55.2523 16.71H79.1223C81.3156 16.71 82.4123 17.8067 82.4123 20C82.4123 22.1933 81.3156 23.29 79.1223 23.29H55.2523ZM107.815 55.35C104.595 55.35 101.702 54.6733 99.135 53.32C96.615 51.92 94.6084 49.89 93.115 47.23C91.6684 44.57 90.945 41.3033 90.945 37.43V20.21C90.945 19.1833 91.2717 18.3433 91.925 17.69C92.625 16.99 93.4884 16.64 94.515 16.64C95.5417 16.64 96.3817 16.99 97.035 17.69C97.735 18.3433 98.085 19.1833 98.085 20.21V37.43C98.085 40.0433 98.575 42.2133 99.555 43.94C100.535 45.62 101.865 46.88 103.545 47.72C105.225 48.5133 107.115 48.91 109.215 48.91C111.222 48.91 112.995 48.5133 114.535 47.72C116.122 46.9267 117.382 45.8533 118.315 44.5C119.248 43.1467 119.715 41.63 119.715 39.95H124.125C124.125 42.8433 123.402 45.4567 121.955 47.79C120.555 50.1233 118.618 51.9667 116.145 53.32C113.718 54.6733 110.942 55.35 107.815 55.35ZM123.285 55C122.258 55 121.395 54.6733 120.695 54.02C120.042 53.32 119.715 52.4567 119.715 51.43V20.21C119.715 19.1367 120.042 18.2733 120.695 17.62C121.395 16.9667 122.258 16.64 123.285 16.64C124.358 16.64 125.222 16.9667 125.875 17.62C126.528 18.2733 126.855 19.1367 126.855 20.21V51.43C126.855 52.4567 126.528 53.32 125.875 54.02C125.222 54.6733 124.358 55 123.285 55ZM142.36 31.06C142.36 28.26 143.037 25.7633 144.39 23.57C145.79 21.33 147.657 19.5567 149.99 18.25C152.323 16.9433 154.89 16.29 157.69 16.29C160.49 16.29 162.567 16.7567 163.92 17.69C165.32 18.5767 165.857 19.65 165.53 20.91C165.39 21.5633 165.11 22.0767 164.69 22.45C164.317 22.7767 163.873 22.9867 163.36 23.08C162.847 23.1733 162.287 23.15 161.68 23.01C158.693 22.4033 156.01 22.3567 153.63 22.87C151.25 23.3833 149.36 24.34 147.96 25.74C146.607 27.14 145.93 28.9133 145.93 31.06H142.36ZM142.43 55C141.31 55 140.447 54.72 139.84 54.16C139.233 53.5533 138.93 52.6667 138.93 51.5V20.21C138.93 19.09 139.233 18.2267 139.84 17.62C140.447 17.0133 141.31 16.71 142.43 16.71C143.597 16.71 144.46 17.0133 145.02 17.62C145.627 18.18 145.93 19.0433 145.93 20.21V51.5C145.93 52.62 145.627 53.4833 145.02 54.09C144.46 54.6967 143.597 55 142.43 55ZM187.03 55.28C183.25 55.28 179.913 54.4633 177.02 52.83C174.127 51.15 171.84 48.8633 170.16 45.97C168.527 43.03 167.71 39.67 167.71 35.89C167.71 32.0633 168.527 28.7033 170.16 25.81C171.84 22.87 174.127 20.5833 177.02 18.95C179.913 17.27 183.25 16.43 187.03 16.43C190.763 16.43 194.077 17.27 196.97 18.95C199.863 20.5833 202.127 22.87 203.76 25.81C205.44 28.7033 206.28 32.0633 206.28 35.89C206.28 39.67 205.463 43.03 203.83 45.97C202.197 48.8633 199.933 51.15 197.04 52.83C194.147 54.4633 190.81 55.28 187.03 55.28ZM187.03 48.98C189.457 48.98 191.603 48.42 193.47 47.3C195.337 46.18 196.783 44.64 197.81 42.68C198.883 40.72 199.42 38.4567 199.42 35.89C199.42 33.3233 198.883 31.06 197.81 29.1C196.783 27.0933 195.337 25.53 193.47 24.41C191.603 23.29 189.457 22.73 187.03 22.73C184.603 22.73 182.457 23.29 180.59 24.41C178.723 25.53 177.253 27.0933 176.18 29.1C175.107 31.06 174.57 33.3233 174.57 35.89C174.57 38.4567 175.107 40.72 176.18 42.68C177.253 44.64 178.723 46.18 180.59 47.3C182.457 48.42 184.603 48.98 187.03 48.98Z" fill="white"/>
</svg>
